<svg xmlns="http://www.w3.org/2000/svg" version="1.1" xmlns:xlink="http://www.w3.org/1999/xlink" xmlns:svgjs="http://svgjs.dev/svgjs" width="1440" height="560" preserveAspectRatio="none" viewBox="0 0 1440 560"><g mask="url(&quot;#SvgjsMask1003&quot;)" fill="none"><rect width="1440" height="560" x="0" y="0" fill="rgba(30, 30, 30, 1)"></rect><path d="M0,447.279C81.359,434.465,131.294,356.27,197.315,307.028C257.875,261.859,341.153,238.852,371.946,169.862C402.691,100.979,371.048,22.797,357.279,-51.369C344.076,-122.485,325.653,-189.432,293.239,-254.093C251.511,-337.333,225.91,-442.578,141.482,-481.845C56.38,-521.425,-47.18,-490.707,-132.789,-452.236C-212.219,-416.541,-270.668,-348.612,-317.858,-275.425C-360.379,-209.479,-367.518,-131.483,-388.38,-55.841C-412.704,32.352,-479.973,119.136,-450.571,205.769C-421.1,292.603,-322.577,332.859,-241.756,376.18C-166.192,416.683,-84.691,460.618,0,447.279" fill="#181818"></path><path d="M1440 881.4680000000001C1510.854 893.213 1588.884 924.3779999999999 1650.987 888.303 1713.163 852.185 1731.465 771.014 1749.825 701.492 1765.981 640.313 1757.339 578.291 1749.437 515.51 1741.392 451.587 1736.2939999999999 387.18600000000004 1703.301 331.848 1666.112 269.473 1620.294 203.72000000000003 1550.861 182.44299999999998 1481.266 161.11599999999999 1404.302 185.86200000000002 1340.351 220.62599999999998 1283.191 251.69799999999998 1259.382 317.466 1214.987 365.025 1168.309 415.029 1082.674 439.516 1072.8319999999999 507.209 1062.992 574.887 1132.6190000000001 625.788 1168.6190000000001 683.936 1199.706 734.148 1221.8890000000001 790.337 1269.636 825.091 1318.998 861.02 1379.769 871.4839999999999 1440 881.4680000000001" fill="#242424"></path></g><defs><mask id="SvgjsMask1003"><rect width="1440" height="560" fill="#ffffff"></rect></mask></defs></svg>